<?xml version="1.0" standalone="no"?>
<!DOCTYPE svg PUBLIC "-//W3C//DTD SVG 20010904//EN"
 "http://www.w3.org/TR/2001/REC-SVG-20010904/DTD/svg10.dtd">
<svg version="1.0" xmlns="http://www.w3.org/2000/svg"
 width="260.000000pt" height="260.000000pt" viewBox="0 0 260.000000 260.000000"
 preserveAspectRatio="xMidYMid meet">
<metadata>
Created by potrace 1.11, written by Peter Selinger 2001-2013
</metadata>
<g transform="translate(0.000000,260.000000) scale(0.100000,-0.100000)"
fill="#000000" stroke="none">
<path d="M409 2025 c-1 -117 -1 -168 0 -215 l1 -46 57 1 58 0 0 -352 c0 -228
-3 -354 -10 -356 -5 -2 -31 -3 -57 -2 l-48 2 0 -164 c0 -123 3 -163 13 -164
15 0 755 0 780 1 16 0 17 13 15 163 l-3 162 -45 0 -45 0 0 111 -1 112 175 -2
175 -1 1 -107 c1 -69 -2 -109 -9 -111 -6 -2 -28 -3 -48 -2 -21 1 -39 -1 -39
-4 -1 -3 -2 -77 -3 -163 -1 -104 2 -158 9 -159 5 0 251 -1 545 -2 l535 -2 0
128 0 128 -141 -3 -142 -3 3 38 c1 20 0 38 -4 38 -3 1 -28 2 -56 3 l-50 1 0
355 0 355 50 1 c28 1 53 2 56 3 3 0 5 73 5 161 l0 160 -31 1 c-38 0 -628 0
-715 0 l-66 -1 0 -160 c0 -102 4 -161 11 -161 5 -1 28 -2 50 -3 l40 -1 0 -100
0 -100 -176 -3 -176 -2 0 103 0 103 48 -1 49 -2 0 164 c0 162 0 163 -22 164
-13 0 -195 1 -406 2 l-382 2 -1 -70z"/>
</g>
</svg>
